<svg width="22" height="22" viewBox="0 0 22 22" fill="#fff" xmlns="http://www.w3.org/2000/svg">
<path d="M11.0001 0C4.95823 0 0 4.95819 0 11C0 16.1557 3.61779 20.8392 8.42194 22V18.3607C7.94592 18.465 7.50784 18.468 7.02326 18.3252C6.37319 18.1333 5.84497 17.7003 5.45288 17.04C5.20295 16.6183 4.76 16.1611 4.29791 16.1947L4.18462 14.9107C5.18382 14.8251 6.04823 15.5194 6.56134 16.3815C6.78928 16.7649 7.05163 16.9896 7.38833 17.089C7.71379 17.1848 8.06325 17.1388 8.47045 16.995C8.57267 16.1797 8.94613 15.8746 9.22828 15.4449C6.36312 15.0176 5.22125 13.4969 4.76806 12.2971C4.1675 10.7041 4.48976 8.71393 5.55174 7.45625C5.57238 7.43175 5.60965 7.36763 5.59521 7.32281C5.10828 5.85197 5.70163 4.63525 5.72345 4.50618C6.2854 4.67235 6.37671 4.339 8.16446 5.42514L8.47347 5.61078C8.60271 5.68782 8.56209 5.64384 8.69133 5.63411C9.43775 5.43135 10.2246 5.3194 10.9999 5.30933C11.7811 5.3194 12.5629 5.43135 13.3402 5.64233L13.4403 5.6524C13.4315 5.65106 13.4674 5.64603 13.5277 5.61011C15.7609 4.25743 15.6807 4.69954 16.2796 4.50484C16.3012 4.63408 16.8867 5.87061 16.405 7.32281C16.34 7.52289 18.3411 9.35527 17.2319 12.2966C16.7788 13.4969 15.6371 15.0169 12.7719 15.4442C13.1391 16.004 13.5804 16.3024 13.5781 17.4572V22C18.3824 20.8392 22 16.1557 22 11C22.0002 4.95819 17.0419 0 11.0001 0Z" fill="#FFF"/>
</svg>
